<?xml version="1.0"?>
<svg width="360" height="380" xmlns="http://www.w3.org/2000/svg" xmlns:svg="http://www.w3.org/2000/svg">
 <!-- Created with SVG-edit - http://svg-edit.googlecode.com/ -->
 <g>
  <title>Layer 1</title>
  <polygon id="svg_5" fill="#160516" stroke="#ffffff" stroke-width="5" points="181,3.0537033081054688 204.16299438476562,104.63099670410156 291.14801025390625,34.36499786376953 241.64199829101562,128.45399475097656 359.2229919433594,116.33799743652344 255.9580078125,167 359.2229919433594,217.6619873046875 241.64199829101562,205.54598999023438 291.14801025390625,299.635009765625 204.16299438476562,229.36898803710938 181,330.9460144042969 157.83700561523438,229.36898803710938 70.85200500488281,299.635009765625 120.35800170898438,205.54598999023438 2.7769927978515625,217.6619873046875 106.0419921875,167 2.7769927978515625,116.33799743652344 120.35800170898438,128.45399475097656 70.85200500488281,34.36499786376953 157.83700561523438,104.63099670410156 181,3.0537033081054688 204.16299438476562,104.63099670410156 "/>
  <polygon id="svg_6" fill="#7f007f" stroke="#ffffff" stroke-width="4" points="182.5,82.50399780273438 194.6300048828125,136.40499877929688 240.17999267578125,99.11900329589844 214.25601196289062,149.04600524902344 275.8280029296875,142.61700439453125 221.75299072265625,169.5 275.8280029296875,196.38299560546875 214.25601196289062,189.95401000976562 240.17999267578125,239.88101196289062 194.6300048828125,202.59500122070312 182.5,256.4960021972656 170.3699951171875,202.59500122070312 124.82000732421875,239.88101196289062 150.74398803710938,189.95401000976562 89.1719970703125,196.38299560546875 143.24700927734375,169.5 89.1719970703125,142.61700439453125 150.74398803710938,149.04600524902344 124.82000732421875,99.11900329589844 170.3699951171875,136.40499877929688 182.5,82.50399780273438 194.6300048828125,136.40499877929688 "/>
  <text id="svg_4" font-family="Monospace" font-size="24" font-style="italic" font-weight="bold" fill="#bfbf00" stroke="#000000" stroke-width="0" text-anchor="middle" transform="matrix(1.1483199999999998,0,0,1.1471099999999999,-194.44479999999993,-119.46449999999999) " x="330" y="417.9221" xml:space="preserve">Valeria Mercado</text>
  <polygon id="svg_8" fill="#bfbf00" stroke="#000000" stroke-width="4" points="182,125.29400634765625 187.66598510742188,151.75399780273438 208.9429931640625,133.4499969482422 196.83401489257812,157.95899963378906 225.59500122070312,154.80299377441406 200.33499145507812,168 225.59500122070312,181.19699096679688 196.83401489257812,178.04098510742188 208.9429931640625,202.54998779296875 187.66598510742188,184.24600219726562 182,210.70599365234375 176.33401489257812,184.24600219726562 155.0570068359375,202.54998779296875 167.1669921875,178.04098510742188 138.40499877929688,181.19699096679688 163.66500854492188,168 138.40499877929688,154.80299377441406 167.1669921875,157.95899963378906 155.0570068359375,133.4499969482422 176.33401489257812,151.75399780273438 182,125.29400634765625 187.66598510742188,151.75399780273438 "/>
 </g>
</svg>